<svg width="512" height="512" viewBox="0 0 512 512" fill="none" xmlns="http://www.w3.org/2000/svg">
<path fill-rule="evenodd" clip-rule="evenodd" d="M511 101H1V411.841H511V101ZM476.807 135.219H35.9696V377.481H476.807V135.219Z" fill="#333333"/>
<path d="M72.4197 337.239H108.676V180.575H72.4197V337.239Z" fill="#333333"/>
<path d="M145.856 337.239H217.026C268.278 337.239 303.415 306.353 303.415 258.907C303.415 211.46 268.278 180.575 217.026 180.575H145.856V337.239ZM182.112 307.472V210.341H215.236C246.345 210.341 266.711 228.917 266.711 258.907C266.711 288.897 246.345 307.472 215.236 307.472H182.112Z" fill="#333333"/>
<path d="M382.233 339.924C426.994 339.924 448.703 317.544 448.703 291.358C448.703 233.84 357.615 253.759 357.615 224.888C357.615 215.041 365.895 206.984 387.381 206.984C401.257 206.984 416.252 211.012 430.799 219.293L441.989 191.765C427.442 182.589 407.299 177.889 387.604 177.889C343.067 177.889 321.582 200.046 321.582 226.679C321.582 284.868 412.671 264.726 412.671 294.044C412.671 303.668 403.942 310.829 382.457 310.829C363.657 310.829 343.962 304.115 330.758 294.492L318.449 321.796C332.324 332.539 357.391 339.924 382.233 339.924Z" fill="#333333"/>
</svg>
